<svg width="21" height="24" viewBox="0 0 21 24" fill="none" xmlns="http://www.w3.org/2000/svg">
<path d="M3.18629 1.07094C3.3671 0.43672 3.94707 0 4.60632 0H11.9082C12.9151 0 13.6272 0.987487 13.3087 1.94438L13.3046 1.9555L11.5521 6.95413H15.1168C16.4325 6.95413 17.0737 8.54524 16.1822 9.47292L16.178 9.47848L15.8484 9.81506C15.2154 9.72335 14.5735 9.71074 13.9374 9.77751L15.1808 8.50908C15.1933 8.49721 15.2016 8.48158 15.2044 8.46457C15.2066 8.44367 15.2033 8.42256 15.1947 8.40337C15.1876 8.38475 15.1756 8.36841 15.1599 8.35609C15.153 8.35052 15.1418 8.34496 15.1168 8.34496H10.5688C10.4577 8.34482 10.3483 8.31806 10.2496 8.26693C10.151 8.2158 10.0661 8.14179 10.0019 8.05108C9.93777 7.96038 9.89628 7.85563 9.88094 7.7456C9.8656 7.63557 9.87684 7.52346 9.91372 7.41867L11.9902 1.50209C11.9942 1.48913 11.995 1.47543 11.9926 1.46209C11.9903 1.44875 11.9848 1.43615 11.9767 1.42531C11.9686 1.41448 11.958 1.40571 11.9459 1.39972C11.9337 1.39373 11.9203 1.39068 11.9068 1.39083H4.60632C4.58749 1.39071 4.56913 1.39677 4.55406 1.40807C4.53899 1.41937 4.52804 1.4353 4.52287 1.45341L1.39351 12.4048C1.37961 12.4604 1.41994 12.516 1.47696 12.516H4.13066C4.23614 12.5161 4.34022 12.5402 4.43503 12.5865C4.52983 12.6327 4.61287 12.6999 4.67786 12.783C4.74285 12.8661 4.78809 12.9629 4.81015 13.066C4.83222 13.1691 4.83053 13.276 4.80521 13.3784L2.96237 20.7497C2.95853 20.7633 2.95712 20.7774 2.95819 20.7915C2.95807 20.7969 2.95952 20.8022 2.96237 20.8068C2.97244 20.8242 2.98709 20.8387 3.00473 20.8485C3.02237 20.8583 3.04234 20.8631 3.06251 20.8624C3.06744 20.8614 3.07215 20.8595 3.07641 20.8568C3.08891 20.8505 3.1002 20.842 3.10979 20.8318L3.11397 20.8262L7.11955 16.7386C7.06622 17.3759 7.09191 18.0173 7.19604 18.6482L4.1098 21.7984C3.06112 22.8861 1.24609 21.8819 1.61326 20.4132L3.24053 13.9055H1.47696C1.24832 13.9055 1.0228 13.8524 0.81817 13.7504C0.613536 13.6484 0.435375 13.5003 0.297715 13.3177C0.160055 13.1352 0.0666564 12.9231 0.0248732 12.6984C-0.01691 12.4736 -0.00593676 12.2421 0.0569292 12.0223L3.18629 1.07094ZM21 17.3853C21 19.0452 20.3406 20.6372 19.1669 21.8109C17.9931 22.9847 16.4012 23.6441 14.7413 23.6441C13.0814 23.6441 11.4894 22.9847 10.3157 21.8109C9.14196 20.6372 8.48256 19.0452 8.48256 17.3853C8.48256 15.7254 9.14196 14.1335 10.3157 12.9598C11.4894 11.786 13.0814 11.1266 14.7413 11.1266C16.4012 11.1266 17.9931 11.786 19.1669 12.9598C20.3406 14.1335 21 15.7254 21 17.3853ZM17.8192 16.7775L13.6884 14.4827C13.5826 14.4238 13.4632 14.3936 13.3421 14.3951C13.2209 14.3965 13.1023 14.4296 12.9979 14.491C12.8935 14.5524 12.8069 14.64 12.7468 14.7452C12.6867 14.8503 12.655 14.9693 12.655 15.0905V19.6802C12.655 19.8013 12.6867 19.9203 12.7468 20.0255C12.8069 20.1306 12.8935 20.2182 12.9979 20.2796C13.1023 20.3411 13.2209 20.3741 13.3421 20.3756C13.4632 20.3771 13.5826 20.3469 13.6884 20.288L17.8192 17.9931C17.9275 17.9329 18.0178 17.8448 18.0807 17.7379C18.1435 17.631 18.1767 17.5093 18.1767 17.3853C18.1767 17.2614 18.1435 17.1396 18.0807 17.0328C18.0178 16.9259 17.9275 16.8378 17.8192 16.7775Z" fill="black"/>
</svg>