<svg width="11" height="15" viewBox="0 0 11 15" fill="none" xmlns="http://www.w3.org/2000/svg">
<path d="M2.17683 4.29405C2.1102 5.00482 2.06344 6.26269 2.48312 6.79811C2.48312 6.79811 2.28555 5.41632 4.05663 3.68265C4.76973 2.98474 4.93457 2.03549 4.68556 1.32355C4.54411 0.92024 4.28576 0.587068 4.0613 0.354432C3.93037 0.217655 4.03091 -0.00796661 4.22146 0.00021657C5.37412 0.0516537 7.24223 0.371967 8.03599 2.36399C8.38436 3.23842 8.41008 4.14208 8.24408 5.06093C8.13887 5.64778 7.76478 6.95242 8.61817 7.11257C9.22723 7.22714 9.52183 6.74316 9.65393 6.39479C9.70887 6.24983 9.89942 6.21359 10.0023 6.32933C11.031 7.49952 11.1187 8.8778 10.906 10.0644C10.4945 12.358 8.1716 14.0274 5.86394 14.0274C2.98112 14.0274 0.686326 12.3779 0.0912911 9.39217C-0.148359 8.18691 -0.0267803 5.80209 1.83197 4.1187C1.96992 3.99244 2.19554 4.10467 2.17683 4.29405Z" fill="url(#paint0_radial_1_814)"/>
<path d="M6.91725 8.58324C5.8546 7.21548 6.3304 5.65483 6.59109 5.0329C6.62616 4.95107 6.53264 4.87392 6.45899 4.92419C6.0019 5.23515 5.06551 5.96696 4.62946 6.99687C4.0391 8.38918 4.08119 9.07072 4.43073 9.90307C4.64115 10.4046 4.39683 10.511 4.27408 10.5297C4.15484 10.5484 4.04495 10.4689 3.95727 10.3859C3.70504 10.1437 3.5253 9.83606 3.43823 9.49742C3.41952 9.42494 3.32483 9.40506 3.28158 9.46468C2.95425 9.9171 2.78474 10.6431 2.77656 11.1563C2.75084 12.7426 4.06132 14.0286 5.64652 14.0286C7.64438 14.0286 9.09982 11.8191 7.95184 9.97204C7.61866 9.43429 7.30536 9.08241 6.91725 8.58324Z" fill="url(#paint1_radial_1_814)"/>
<defs>
<radialGradient id="paint0_radial_1_814" cx="0" cy="0" r="1" gradientUnits="userSpaceOnUse" gradientTransform="translate(5.29296 14.0637) rotate(-179.751) scale(8.25188 13.5397)">
<stop offset="0.314" stop-color="#FF9800"/>
<stop offset="0.662" stop-color="#FF6D00"/>
<stop offset="0.972" stop-color="#F44336"/>
</radialGradient>
<radialGradient id="paint1_radial_1_814" cx="0" cy="0" r="1" gradientUnits="userSpaceOnUse" gradientTransform="translate(5.7564 5.8522) rotate(90.5787) scale(8.63401 6.49774)">
<stop offset="0.214" stop-color="#FFF176"/>
<stop offset="0.328" stop-color="#FFF27D"/>
<stop offset="0.487" stop-color="#FFF48F"/>
<stop offset="0.672" stop-color="#FFF7AD"/>
<stop offset="0.793" stop-color="#FFF9C4"/>
<stop offset="0.822" stop-color="#FFF8BD" stop-opacity="0.804"/>
<stop offset="0.863" stop-color="#FFF6AB" stop-opacity="0.529"/>
<stop offset="0.91" stop-color="#FFF38D" stop-opacity="0.209"/>
<stop offset="0.941" stop-color="#FFF176" stop-opacity="0"/>
</radialGradient>
</defs>
</svg>
