<svg width="105" height="33" viewBox="0 0 105 33" fill="none" xmlns="http://www.w3.org/2000/svg">
<path d="M58.9328 7.53743V24H55.8182V7.53743H58.9328ZM67.4826 24.2002C66.2961 24.2002 65.2283 23.9407 64.2791 23.4216C63.3299 22.8877 62.5809 22.1387 62.0322 21.1747C61.4983 20.2106 61.2313 19.0983 61.2313 17.8377C61.2313 16.577 61.5057 15.4647 62.0544 14.5006C62.618 13.5366 63.3818 12.7951 64.3458 12.276C65.3099 11.7421 66.3851 11.4751 67.5716 11.4751C68.7581 11.4751 69.8334 11.7421 70.7974 12.276C71.7614 12.7951 72.5178 13.5366 73.0666 14.5006C73.6301 15.4647 73.9119 16.577 73.9119 17.8377C73.9119 19.0983 73.6227 20.2106 73.0443 21.1747C72.4807 22.1387 71.7095 22.8877 70.7307 23.4216C69.7666 23.9407 68.684 24.2002 67.4826 24.2002ZM67.4826 21.4861C68.0462 21.4861 68.5727 21.3526 69.0622 21.0857C69.5664 20.8039 69.9669 20.3886 70.2635 19.8399C70.5601 19.2911 70.7084 18.6237 70.7084 17.8377C70.7084 16.666 70.397 15.7687 69.774 15.1458C69.166 14.5081 68.417 14.1892 67.5271 14.1892C66.6373 14.1892 65.8883 14.5081 65.2802 15.1458C64.687 15.7687 64.3903 16.666 64.3903 17.8377C64.3903 19.0093 64.6795 19.914 65.258 20.5518C65.8512 21.1747 66.5928 21.4861 67.4826 21.4861ZM81.0241 11.4751C81.9436 11.4751 82.7519 11.6605 83.449 12.0313C84.1461 12.3872 84.6948 12.8544 85.0953 13.4328V11.6753H88.232V24.089C88.232 25.231 88.0022 26.2469 87.5424 27.1368C87.0826 28.0415 86.393 28.7534 85.4735 29.2725C84.5539 29.8064 83.4416 30.0734 82.1364 30.0734C80.3864 30.0734 78.9478 29.6655 77.8206 28.8498C76.7082 28.0341 76.0779 26.9217 75.9296 25.5128H79.0219C79.185 26.0764 79.5336 26.5213 80.0675 26.8476C80.6163 27.1887 81.2762 27.3593 82.0475 27.3593C82.9522 27.3593 83.6863 27.0849 84.2499 26.5361C84.8135 26.0022 85.0953 25.1865 85.0953 24.089V22.1758C84.6948 22.7542 84.1387 23.2362 83.4268 23.6218C82.7297 24.0074 81.9288 24.2002 81.0241 24.2002C79.9859 24.2002 79.0367 23.9333 78.1765 23.3993C77.3163 22.8654 76.6341 22.1164 76.1298 21.1524C75.6404 20.1736 75.3957 19.0538 75.3957 17.7932C75.3957 16.5473 75.6404 15.4424 76.1298 14.4784C76.6341 13.5144 77.3089 12.7728 78.1543 12.2537C79.0145 11.7346 79.9711 11.4751 81.0241 11.4751ZM85.0953 17.8377C85.0953 17.0813 84.9469 16.4361 84.6503 15.9022C84.3537 15.3534 83.9533 14.9382 83.449 14.6564C82.9447 14.3598 82.4034 14.2114 81.825 14.2114C81.2466 14.2114 80.7127 14.3523 80.2232 14.6341C79.7338 14.9159 79.3334 15.3312 79.0219 15.8799C78.7253 16.4139 78.577 17.0516 78.577 17.7932C78.577 18.5347 78.7253 19.1873 79.0219 19.7509C79.3334 20.2996 79.7338 20.7223 80.2232 21.0189C80.7275 21.3156 81.2614 21.4639 81.825 21.4639C82.4034 21.4639 82.9447 21.323 83.449 21.0412C83.9533 20.7446 84.3537 20.3293 84.6503 19.7954C84.9469 19.2466 85.0953 18.594 85.0953 17.8377ZM96.7466 24.2002C95.5601 24.2002 94.4923 23.9407 93.5431 23.4216C92.5939 22.8877 91.8449 22.1387 91.2962 21.1747C90.7623 20.2106 90.4953 19.0983 90.4953 17.8377C90.4953 16.577 90.7697 15.4647 91.3184 14.5006C91.882 13.5366 92.6458 12.7951 93.6098 12.276C94.5739 11.7421 95.6491 11.4751 96.8356 11.4751C98.0221 11.4751 99.0974 11.7421 100.061 12.276C101.025 12.7951 101.782 13.5366 102.331 14.5006C102.894 15.4647 103.176 16.577 103.176 17.8377C103.176 19.0983 102.887 20.2106 102.308 21.1747C101.745 22.1387 100.974 22.8877 99.9947 23.4216C99.0306 23.9407 97.948 24.2002 96.7466 24.2002ZM96.7466 21.4861C97.3102 21.4861 97.8367 21.3526 98.3261 21.0857C98.8304 20.8039 99.2308 20.3886 99.5275 19.8399C99.8241 19.2911 99.9724 18.6237 99.9724 17.8377C99.9724 16.666 99.661 15.7687 99.038 15.1458C98.43 14.5081 97.681 14.1892 96.7911 14.1892C95.9013 14.1892 95.1523 14.5081 94.5442 15.1458C93.951 15.7687 93.6543 16.666 93.6543 17.8377C93.6543 19.0093 93.9435 19.914 94.522 20.5518C95.1152 21.1747 95.8568 21.4861 96.7466 21.4861Z" fill="white"/>
<circle cx="15.721" cy="17.2044" r="15.721" fill="#93BEFF"/>
<circle cx="31.4417" cy="17.2044" r="15.721" fill="#0055FD"/>
</svg>
