<svg width="20" height="20" viewBox="0 0 20 20" fill="none" xmlns="http://www.w3.org/2000/svg">
<path d="M16.7857 13.5715H13.9286C13.7313 13.5715 13.5714 13.7314 13.5714 13.9287V16.7858C13.5714 16.9831 13.7313 17.143 13.9286 17.143H16.7857C16.983 17.143 17.1429 16.9831 17.1429 16.7858V13.9287C17.1429 13.7314 16.983 13.5715 16.7857 13.5715Z" fill="#4B4B4B"/>
<path d="M13.2139 10.7144H11.071C10.8738 10.7144 10.7139 10.8743 10.7139 11.0715V13.2144C10.7139 13.4116 10.8738 13.5715 11.071 13.5715H13.2139C13.4111 13.5715 13.571 13.4116 13.571 13.2144V11.0715C13.571 10.8743 13.4111 10.7144 13.2139 10.7144Z" fill="#4B4B4B"/>
<path d="M19.6426 17.1428H17.4997C17.3025 17.1428 17.1426 17.3027 17.1426 17.5V19.6428C17.1426 19.8401 17.3025 20 17.4997 20H19.6426C19.8398 20 19.9997 19.8401 19.9997 19.6428V17.5C19.9997 17.3027 19.8398 17.1428 19.6426 17.1428Z" fill="#4B4B4B"/>
<path d="M19.6431 10.7144H18.2146C18.0173 10.7144 17.8574 10.8743 17.8574 11.0715V12.5001C17.8574 12.6973 18.0173 12.8572 18.2146 12.8572H19.6431C19.8404 12.8572 20.0003 12.6973 20.0003 12.5001V11.0715C20.0003 10.8743 19.8404 10.7144 19.6431 10.7144Z" fill="#4B4B4B"/>
<path d="M12.4996 17.8572H11.071C10.8738 17.8572 10.7139 18.0171 10.7139 18.2143V19.6429C10.7139 19.8401 10.8738 20 11.071 20H12.4996C12.6968 20 12.8567 19.8401 12.8567 19.6429V18.2143C12.8567 18.0171 12.6968 17.8572 12.4996 17.8572Z" fill="#4B4B4B"/>
<path d="M18.5714 0H12.1429C11.764 0 11.4006 0.15051 11.1327 0.418419C10.8648 0.686328 10.7143 1.04969 10.7143 1.42857V7.85714C10.7143 8.23602 10.8648 8.59939 11.1327 8.8673C11.4006 9.1352 11.764 9.28571 12.1429 9.28571H18.5714C18.9503 9.28571 19.3137 9.1352 19.5816 8.8673C19.8495 8.59939 20 8.23602 20 7.85714V1.42857C20 1.04969 19.8495 0.686328 19.5816 0.418419C19.3137 0.15051 18.9503 0 18.5714 0ZM17.1429 6.07143C17.1429 6.16615 17.1052 6.25699 17.0383 6.32397C16.9713 6.39094 16.8804 6.42857 16.7857 6.42857H13.9286C13.8339 6.42857 13.743 6.39094 13.676 6.32397C13.6091 6.25699 13.5714 6.16615 13.5714 6.07143V3.21429C13.5714 3.11957 13.6091 3.02872 13.676 2.96175C13.743 2.89477 13.8339 2.85714 13.9286 2.85714H16.7857C16.8804 2.85714 16.9713 2.89477 17.0383 2.96175C17.1052 3.02872 17.1429 3.11957 17.1429 3.21429V6.07143ZM7.85714 0H1.42857C1.04969 0 0.686328 0.15051 0.418419 0.418419C0.15051 0.686328 0 1.04969 0 1.42857V7.85714C0 8.23602 0.15051 8.59939 0.418419 8.8673C0.686328 9.1352 1.04969 9.28571 1.42857 9.28571H7.85714C8.23602 9.28571 8.59939 9.1352 8.8673 8.8673C9.1352 8.59939 9.28571 8.23602 9.28571 7.85714V1.42857C9.28571 1.04969 9.1352 0.686328 8.8673 0.418419C8.59939 0.15051 8.23602 0 7.85714 0ZM6.42857 6.07143C6.42857 6.16615 6.39094 6.25699 6.32397 6.32397C6.25699 6.39094 6.16615 6.42857 6.07143 6.42857H3.21429C3.11957 6.42857 3.02872 6.39094 2.96175 6.32397C2.89477 6.25699 2.85714 6.16615 2.85714 6.07143V3.21429C2.85714 3.11957 2.89477 3.02872 2.96175 2.96175C3.02872 2.89477 3.11957 2.85714 3.21429 2.85714H6.07143C6.16615 2.85714 6.25699 2.89477 6.32397 2.96175C6.39094 3.02872 6.42857 3.11957 6.42857 3.21429V6.07143ZM7.85714 10.7143H1.42857C1.04969 10.7143 0.686328 10.8648 0.418419 11.1327C0.15051 11.4006 0 11.764 0 12.1429V18.5714C0 18.9503 0.15051 19.3137 0.418419 19.5816C0.686328 19.8495 1.04969 20 1.42857 20H7.85714C8.23602 20 8.59939 19.8495 8.8673 19.5816C9.1352 19.3137 9.28571 18.9503 9.28571 18.5714V12.1429C9.28571 11.764 9.1352 11.4006 8.8673 11.1327C8.59939 10.8648 8.23602 10.7143 7.85714 10.7143ZM6.42857 16.7857C6.42857 16.8804 6.39094 16.9713 6.32397 17.0383C6.25699 17.1052 6.16615 17.1429 6.07143 17.1429H3.21429C3.11957 17.1429 3.02872 17.1052 2.96175 17.0383C2.89477 16.9713 2.85714 16.8804 2.85714 16.7857V13.9286C2.85714 13.8339 2.89477 13.743 2.96175 13.676C3.02872 13.6091 3.11957 13.5714 3.21429 13.5714H6.07143C6.16615 13.5714 6.25699 13.6091 6.32397 13.676C6.39094 13.743 6.42857 13.8339 6.42857 13.9286V16.7857Z" fill="#4B4B4B"/>
</svg>
