<svg width="21" height="21" viewBox="0 0 21 21" fill="none" xmlns="http://www.w3.org/2000/svg">
<path d="M2 16.875C2 15.7478 2.44777 14.6668 3.2448 13.8698C4.04183 13.0728 5.12283 12.625 6.25 12.625H14.75C15.8772 12.625 16.9582 13.0728 17.7552 13.8698C18.5522 14.6668 19 15.7478 19 16.875C19 17.4386 18.7761 17.9791 18.3776 18.3776C17.9791 18.7761 17.4386 19 16.875 19H4.125C3.56141 19 3.02091 18.7761 2.6224 18.3776C2.22388 17.9791 2 17.4386 2 16.875Z" stroke="#4B4B4B" stroke-width="2.125" stroke-linejoin="round"/>
<path d="M10.5 8.375C12.2604 8.375 13.6875 6.94791 13.6875 5.1875C13.6875 3.42709 12.2604 2 10.5 2C8.73959 2 7.3125 3.42709 7.3125 5.1875C7.3125 6.94791 8.73959 8.375 10.5 8.375Z" stroke="#4B4B4B" stroke-width="2.125"/>
</svg>
