<svg width="14" height="14" viewBox="0 0 14 14" fill="none" xmlns="http://www.w3.org/2000/svg">
<path d="M10.8931 13.3518C10.7797 13.3517 10.6681 13.3241 10.5676 13.2713L6.99969 11.3953L3.43173 13.2713C3.31613 13.3321 3.18582 13.3593 3.05555 13.3499C2.92528 13.3405 2.80024 13.2949 2.69457 13.2181C2.5889 13.1413 2.50681 13.0366 2.45758 12.9156C2.40836 12.7946 2.39396 12.6623 2.41602 12.5335L3.09713 8.56027L0.210982 5.74622C0.117593 5.65504 0.051557 5.53957 0.0203299 5.41284C-0.0108972 5.28611 -0.0060714 5.15317 0.0342624 5.02904C0.0745961 4.90491 0.148831 4.79452 0.248586 4.71035C0.34834 4.62618 0.469639 4.57158 0.598788 4.5527L4.58815 3.97309L6.37178 0.358237C6.43629 0.249109 6.52812 0.158678 6.63823 0.095858C6.74834 0.0330384 6.87292 0 6.99969 0C7.12646 0 7.25104 0.0330384 7.36115 0.095858C7.47125 0.158678 7.56309 0.249109 7.6276 0.358237L9.41123 3.97309L13.4006 4.5527C13.5299 4.57148 13.6513 4.62606 13.7512 4.71028C13.8511 4.7945 13.9254 4.90498 13.9658 5.02924C14.0061 5.1535 14.0109 5.28658 13.9796 5.41341C13.9482 5.54024 13.882 5.65577 13.7884 5.74692L10.9023 8.56027L11.5834 12.5335C11.6006 12.634 11.5957 12.7371 11.5689 12.8355C11.5422 12.9339 11.4942 13.0252 11.4285 13.1032C11.3628 13.1811 11.2808 13.2437 11.1883 13.2867C11.0959 13.3296 10.9951 13.3519 10.8931 13.3518Z" fill="#FF2020"/>
</svg>
